<svg xmlns="http://www.w3.org/2000/svg" viewBox="0 0 64 80" fill="none" x="0px" y="0px"><path d="M8 38H33C33 36.6188 33.175 35.2785 33.5041 34H8C6.89543 34 6 33.1046 6 32V18C6 16.8954 6.89543 16 8 16H50C51.1046 16 52 16.8954 52 18V22.2808C53.4073 22.5477 54.7493 22.999 56 23.6085V18C56 14.6863 53.3137 12 50 12H8C4.68629 12 2 14.6863 2 18V32C2 35.3137 4.68629 38 8 38Z" fill="black"/><path d="M39.0545 25.4658C40.0442 24.6794 41.1292 24.0078 42.2894 23.471C41.9412 23.1771 41.4913 23 41 23C39.8954 23 39 23.8954 39 25C39 25.1604 39.0189 25.3163 39.0545 25.4658Z" fill="black"/><path d="M19 25C19 26.1046 18.1046 27 17 27C15.8954 27 15 26.1046 15 25C15 23.8954 15.8954 23 17 23C18.1046 23 19 23.8954 19 25Z" fill="black"/><path d="M31 25C31 26.1046 30.1046 27 29 27C27.8954 27 27 26.1046 27 25C27 23.8954 27.8954 23 29 23C30.1046 23 31 23.8954 31 25Z" fill="black"/><path d="M51 35C51 33.8954 50.1046 33 49 33C47.8954 33 47 33.8954 47 35V37H45C43.8954 37 43 37.8954 43 39C43 40.1046 43.8954 41 45 41H47V43C47 44.1046 47.8954 45 49 45C50.1046 45 51 44.1046 51 43V41H53C54.1046 41 55 40.1046 55 39C55 37.8954 54.1046 37 53 37H51V35Z" fill="black"/><path fill-rule="evenodd" clip-rule="evenodd" d="M62 39C62 31.8203 56.1797 26 49 26C41.8203 26 36 31.8203 36 39C36 46.1797 41.8203 52 49 52C56.1797 52 62 46.1797 62 39ZM49 30C53.9706 30 58 34.0294 58 39C58 43.9706 53.9706 48 49 48C44.0294 48 40 43.9706 40 39C40 34.0294 44.0294 30 49 30Z" fill="black"/><text x="0" y="79" fill="#000000" font-size="5px" font-weight="bold" font-family="'Helvetica Neue', Helvetica, Arial-Unicode, Arial, Sans-serif">Created by HDM</text><text x="0" y="84" fill="#000000" font-size="5px" font-weight="bold" font-family="'Helvetica Neue', Helvetica, Arial-Unicode, Arial, Sans-serif">from the Noun Project</text></svg>