<svg xmlns="http://www.w3.org/2000/svg" version="1.1" viewBox="-5.0 -10.0 110.0 135.0">
 <path d="m25.305 1h49.387c6.6875 0 12.766 2.7344 17.168 7.1406 4.4023 4.4023 7.1406 10.48 7.1406 17.168v49.387c0 6.6875-2.7344 12.766-7.1406 17.168-4.4023 4.4023-10.48 7.1406-17.168 7.1406h-49.387c-6.6875 0-12.766-2.7344-17.168-7.1406-4.4023-4.4023-7.1406-10.48-7.1406-17.168v-49.387c0-6.6875 2.7344-12.766 7.1406-17.168 4.4023-4.4023 10.48-7.1406 17.168-7.1406zm22.395 30.34c0-1.2695 1.0273-2.2969 2.2969-2.2969 1.2695 0 2.2969 1.0273 2.2969 2.2969v15.691c0 1.2695-1.0273 2.2969-2.2969 2.2969-1.2695 0-2.2969-1.0273-2.2969-2.2969zm14.043 6.7812c-0.89063-0.89844-0.88672-2.3477 0.007812-3.2383 0.89844-0.89062 2.3477-0.88672 3.2383 0.007813 1.9336 1.9453 3.4961 4.2734 4.5625 6.8555 1.0273 2.4961 1.5977 5.2188 1.5977 8.0586 0 5.8398-2.3672 11.129-6.1953 14.957s-9.1172 6.1953-14.957 6.1953-11.129-2.3672-14.957-6.1953c-3.8281-3.8281-6.1953-9.1172-6.1953-14.957 0-2.8398 0.57031-5.5625 1.5977-8.0586 1.0664-2.582 2.6289-4.9062 4.5625-6.8555 0.89062-0.89844 2.3438-0.89844 3.2383-0.007813 0.89844 0.89063 0.89844 2.3438 0.007812 3.2383-1.5195 1.5273-2.7422 3.3477-3.5742 5.3672-0.79688 1.9336-1.2383 4.0664-1.2383 6.3164 0 4.5703 1.8555 8.7109 4.8516 11.711 2.9961 2.9961 7.1367 4.8516 11.711 4.8516 4.5703 0 8.7109-1.8555 11.711-4.8516 2.9961-2.9961 4.8516-7.1367 4.8516-11.711 0-2.25-0.44141-4.3828-1.2383-6.3164-0.83594-2.0156-2.0547-3.8359-3.5742-5.3672z" fill-rule="evenodd"/>
<text x="0.0" y="117.5" font-size="5.0" font-weight="bold" font-family="Arbeit Regular, Helvetica, Arial-Unicode, Arial, Sans-serif" fill="#000000">Created by VERA</text><text x="0.0" y="122.5" font-size="5.0" font-weight="bold" font-family="Arbeit Regular, Helvetica, Arial-Unicode, Arial, Sans-serif" fill="#000000">from Noun Project</text></svg>