<svg xmlns="http://www.w3.org/2000/svg" viewBox="0 0 25 31.25" x="0px" y="0px"><title>Trash Lock</title><g data-name="Icon 1"><path d="M5.44,23.06a1.51,1.51,0,0,1-1.5-1.4L3,7.53a.5.5,0,0,1,.13-.37A.52.52,0,0,1,3.5,7h14V8H4l.91,13.59a.5.5,0,0,0,.5.47L10,22l0,1Z"/><path d="M18.5,8H2.5A.5.5,0,0,1,2,7.5v-2A.5.5,0,0,1,2.5,5h16a.5.5,0,0,1,.5.5v2A.5.5,0,0,1,18.5,8ZM3,7H18V6H3Z"/><path d="M14,4H13V3H8V4H7V2.5A.5.5,0,0,1,7.5,2h6a.5.5,0,0,1,.5.5Z"/><path d="M21.5,23h-8A1.5,1.5,0,0,1,12,21.5v-6A1.5,1.5,0,0,1,13.5,14h8A1.5,1.5,0,0,1,23,15.5v6A1.5,1.5,0,0,1,21.5,23Zm-8-8a.5.5,0,0,0-.5.5v6a.5.5,0,0,0,.5.5h8a.5.5,0,0,0,.5-.5v-6a.5.5,0,0,0-.5-.5Z"/><path d="M19.5,15h-4a.5.5,0,0,1-.5-.5v-2a2.5,2.5,0,0,1,5,0v2A.5.5,0,0,1,19.5,15ZM16,14h3V12.5a1.5,1.5,0,0,0-3,0Z"/><path d="M17.5,19.5a1,1,0,1,1,1-1A1,1,0,0,1,17.5,19.5Zm0-1Z"/></g><text x="0" y="40" fill="#000000" font-size="5px" font-weight="bold" font-family="'Helvetica Neue', Helvetica, Arial-Unicode, Arial, Sans-serif">Created by M Yudi Maulana</text><text x="0" y="45" fill="#000000" font-size="5px" font-weight="bold" font-family="'Helvetica Neue', Helvetica, Arial-Unicode, Arial, Sans-serif">from the Noun Project</text></svg>